<svg width="32" height="28" viewBox="0 0 159 82" fill="none" xmlns="http://www.w3.org/2000/svg">
<path d="M157 42C157 62.9868 139.987 80 119 80C98.0132 80 81 62.9868 81 42C81 21.0132 98.0132 4 119 4C139.987 4 157 21.0132 157 42ZM119 68.2991C133.525 68.2991 145.299 56.5246 145.299 42C145.299 27.4754 133.525 15.7009 119 15.7009C104.475 15.7009 92.7009 27.4754 92.7009 42C92.7009 56.5246 104.475 68.2991 119 68.2991Z" stroke="#222326" stroke-width="4"/>
<path d="M4 79.5575H28.9842L34.083 65.7695L22.6107 42.2788L4 79.5575Z" stroke="#222326" stroke-width="4"/>
<path d="M70.2846 60.9181L42.4961 5L34.083 24.15L60.342 79.5575H79.2576L70.2846 60.9181Z" stroke="#222326" stroke-width="4"/>
</svg>
