<svg width="24" height="25.1613" viewBox="0 0 124 130" fill="none" xmlns="http://www.w3.org/2000/svg">
<mask id="path-1-inside-1_759_2" fill="white">
<path d="M61.1348 3.85547C76.386 -0.233684 90.0436 0.717882 99.9805 2.73828C105.109 3.78116 109.251 5.10998 112.111 6.17871C113.542 6.71307 114.653 7.18256 115.408 7.51953C115.785 7.6879 116.073 7.8243 116.269 7.91797C116.366 7.96476 116.441 8.00043 116.491 8.02539L116.568 8.06348L116.633 8.10352C116.776 8.20672 116.858 8.37953 116.841 8.55762L111.292 65.1318C111.292 65.1351 111.291 65.1384 111.291 65.1416L107.928 96.1172L105.767 97.6445L109.304 65.1934L109.196 65.165C108.252 64.9172 106.877 64.5728 105.157 64.1865C101.717 63.4138 96.9 62.4749 91.3926 61.8115C80.5312 60.5032 67.0589 60.2752 56.166 64.4355L55.6494 64.6357C46.1388 68.4194 32.3012 68.8008 20.9082 68.2549C15.1991 67.9813 10.0796 67.4736 6.3877 67.0342C4.54151 66.8145 3.05044 66.6117 2.02148 66.4639C1.50774 66.39 1.10878 66.3299 0.837891 66.2881L0.735352 66.2725C0.648616 66.2591 0.579443 66.2484 0.52832 66.2402L0.449219 66.2275L0.424805 66.2227C0.160762 66.1793 -0.0264745 65.9377 0.00292969 65.6738L7.04883 2.71973L7.05957 2.65918C7.09314 2.52021 7.18616 2.40145 7.31543 2.33398C7.46339 2.25698 7.63985 2.25759 7.78711 2.33594L7.80469 2.34473L7.84082 2.36328C7.87866 2.38267 7.93675 2.4123 8.01367 2.4502C8.16839 2.52642 8.40212 2.63778 8.71094 2.77734C9.32906 3.05667 10.2513 3.44768 11.457 3.88965C13.8694 4.77385 17.4182 5.86257 21.9473 6.66992C31.0044 8.28442 43.9874 8.77681 59.6543 4.26758L61.1348 3.85547ZM11.7031 8.58691C11.1651 13.5588 10.389 19.2147 9.6123 24.8701C8.83564 30.5254 8.05849 36.1806 7.52051 41.1523C7.90664 41.1185 9.0117 41.2939 10.2803 41.4951C11.7753 41.7323 13.4979 42.0058 14.541 42.0156C14.9931 37.8378 15.4491 33.372 15.9072 28.8604C19.7658 29.0094 23.417 29.1528 27.583 29.9014C27.0893 34.0997 26.6015 38.2815 26.1592 42.3691C28.0464 42.6983 30.6485 42.3027 31.7285 42.3027C32.2665 37.3308 33.0636 32.2026 33.7178 27.0908C34.372 21.979 35.0255 17.8743 35.5635 12.9023C32.2322 12.9023 31.6499 12.8159 29.7139 12.5889C29.2352 17.0122 28.636 20.9378 28.1006 25.4834C24.1775 25.0015 20.1683 24.5192 16.3701 24.3164C16.85 19.5866 17.3282 14.8947 17.8018 10.5186C17.2335 10.3401 16.2765 10.0358 15.2383 9.70605C14.0049 9.31428 12.6552 8.88586 11.7031 8.58691ZM35.3398 33.123L34.2012 42.4648C34.3237 42.4479 34.6089 42.4374 34.959 42.4248C35.7819 42.3951 36.966 42.3525 37.2529 42.1797C37.377 42.1038 37.3929 41.4531 37.4072 40.8564C37.4144 40.556 37.4211 40.2692 37.4414 40.0762C38.1899 41.5332 40.3459 42.131 40.3594 42.1348C41.0569 42.2825 41.8055 42.3532 42.5137 42.375C43.8231 42.4153 45.0907 41.9259 46.1641 41.1748C46.8085 40.7239 47.4125 40.2348 47.9082 39.5381C48.2623 39.0403 48.3323 38.8109 48.4922 38.0215C48.6677 37.1553 48.7557 36.2697 48.7188 35.3867C48.6719 34.268 48.561 33.7424 47.9824 32.8926C47.3653 31.9452 46.5626 31.213 45.5791 30.7344C44.6177 30.2167 43.5329 30.0207 42.334 30.1084L42.3184 30.1094C41.2935 30.1932 40.5015 30.2587 39.6865 30.6768C38.5919 31.2385 38.3197 31.7241 38.3135 31.7354C38.2781 29.2879 39.4691 24.4422 39.4717 24.4316C38.0869 23.9652 36.9412 23.7854 36.4795 23.7822L35.3398 33.123ZM42.4287 32.1943C43.1417 32.1275 43.7958 32.2398 44.375 32.5205C44.9679 32.8123 45.4448 33.24 45.7939 33.8027C46.1686 34.3633 46.3987 35.0249 46.4727 35.7998C46.5465 36.5745 46.4467 37.2789 46.1836 37.8867C45.9448 38.4797 45.5546 38.9631 45.0264 39.3477C44.5094 39.7189 43.8859 39.9263 43.1729 39.9932C42.4585 40.0477 40.9688 39.9604 40.3896 39.6797C39.8096 39.3867 39.3458 38.9712 38.9736 38.4355C38.6118 37.8738 38.3933 37.1987 38.3193 36.4238C38.2454 35.6491 38.3337 34.9582 38.584 34.3516C38.8459 33.7314 39.2226 33.237 39.7383 32.8535C41.2335 32.1669 41.7146 32.2489 42.4287 32.1943Z"/>
</mask>
<path d="M61.1348 3.85547L60.8758 2.88954L60.8666 2.8921L61.1348 3.85547ZM99.9805 2.73828L100.18 1.75833L100.18 1.75833L99.9805 2.73828ZM112.111 6.17871L112.461 5.24195L112.461 5.24194L112.111 6.17871ZM115.408 7.51953L115.816 6.60635L115.816 6.60634L115.408 7.51953ZM116.269 7.91797L116.701 7.01646L116.701 7.01645L116.269 7.91797ZM116.491 8.02539L116.047 8.92113L116.049 8.92208L116.491 8.02539ZM116.568 8.06348L117.096 7.21404L117.055 7.18834L117.011 7.16679L116.568 8.06348ZM116.633 8.10352L117.217 7.2918L117.189 7.27198L117.16 7.25407L116.633 8.10352ZM116.841 8.55762L117.836 8.65523L117.836 8.65521L116.841 8.55762ZM111.292 65.1318L112.287 65.2296L112.287 65.2294L111.292 65.1318ZM111.291 65.1416L110.298 65.0239L110.297 65.0337L111.291 65.1416ZM107.928 96.1172L108.505 96.9338L108.873 96.6735L108.922 96.2251L107.928 96.1172ZM105.767 97.6445L104.772 97.5362L104.532 99.7415L106.344 98.4612L105.767 97.6445ZM109.304 65.1934L110.298 65.3017L110.391 64.4459L109.559 64.2264L109.304 65.1934ZM109.196 65.165L109.451 64.1981L109.45 64.1978L109.196 65.165ZM105.157 64.1865L105.376 63.2108L105.376 63.2108L105.157 64.1865ZM91.3926 61.8115L91.5122 60.8187L91.5122 60.8187L91.3926 61.8115ZM56.166 64.4355L55.8092 63.5014L55.8047 63.5031L56.166 64.4355ZM55.6494 64.6357L55.2881 63.7033L55.2798 63.7066L55.6494 64.6357ZM20.9082 68.2549L20.8603 69.2537L20.8603 69.2537L20.9082 68.2549ZM6.3877 67.0342L6.26951 68.0272L6.26951 68.0272L6.3877 67.0342ZM2.02148 66.4639L1.87924 67.4537L1.87925 67.4537L2.02148 66.4639ZM0.837891 66.2881L0.99033 65.2998L0.988533 65.2995L0.837891 66.2881ZM0.735352 66.2725L0.583344 67.2608L0.58471 67.261L0.735352 66.2725ZM0.52832 66.2402L0.369854 67.2276L0.371205 67.2278L0.52832 66.2402ZM0.449219 66.2275L0.253103 67.2081L0.271863 67.2119L0.290753 67.2149L0.449219 66.2275ZM0.424805 66.2227L0.620921 65.2421L0.603865 65.2387L0.586701 65.2358L0.424805 66.2227ZM0.00292969 65.6738L-0.990865 65.5626L-0.990917 65.5631L0.00292969 65.6738ZM7.04883 2.71973L6.0642 2.54504L6.0586 2.57662L6.05503 2.6085L7.04883 2.71973ZM7.05957 2.65918L6.08752 2.4244L6.08031 2.45425L6.07495 2.48449L7.05957 2.65918ZM7.31543 2.33398L6.8538 1.44691L6.85274 1.44747L7.31543 2.33398ZM7.78711 2.33594L7.3174 3.21876L7.32858 3.2247L7.3399 3.23036L7.78711 2.33594ZM7.80469 2.34473L8.26152 1.45511L8.2519 1.4503L7.80469 2.34473ZM7.84082 2.36328L7.38402 3.25285L7.38475 3.25322L7.84082 2.36328ZM8.01367 2.4502L7.57173 3.34724L7.57176 3.34725L8.01367 2.4502ZM8.71094 2.77734L8.29912 3.68861L8.29913 3.68862L8.71094 2.77734ZM11.457 3.88965L11.1129 4.82856L11.1129 4.82857L11.457 3.88965ZM21.9473 6.66992L21.7718 7.6544L21.7718 7.6544L21.9473 6.66992ZM59.6543 4.26758L59.3861 3.30417L59.3777 3.30659L59.6543 4.26758ZM11.7031 8.58691L12.0027 7.63284L10.84 7.26775L10.7089 8.47933L11.7031 8.58691ZM9.6123 24.8701L8.6216 24.7341L8.6216 24.7341L9.6123 24.8701ZM7.52051 41.1523L6.52631 41.0448L6.39537 42.2548L7.60783 42.1485L7.52051 41.1523ZM10.2803 41.4951L10.437 40.5075L10.437 40.5075L10.2803 41.4951ZM14.541 42.0156L14.5316 43.0156L15.4377 43.0241L15.5352 42.1232L14.541 42.0156ZM15.9072 28.8604L15.9458 27.8611L15.0072 27.8248L14.9123 28.7593L15.9072 28.8604ZM27.583 29.9014L28.5762 30.0182L28.6861 29.0836L27.7599 28.9171L27.583 29.9014ZM26.1592 42.3691L25.165 42.2616L25.0642 43.1932L25.9873 43.3543L26.1592 42.3691ZM31.7285 42.3027L31.7285 43.3027L32.6261 43.3027L32.7227 42.4103L31.7285 42.3027ZM33.7178 27.0908L34.7097 27.2178L34.7097 27.2178L33.7178 27.0908ZM35.5635 12.9023L36.5577 13.0099L36.6775 11.9023L35.5635 11.9023L35.5635 12.9023ZM29.7139 12.5889L29.8303 11.5957L28.8282 11.4782L28.7197 12.4813L29.7139 12.5889ZM28.1006 25.4834L27.9787 26.4759L28.9762 26.5985L29.0937 25.6004L28.1006 25.4834ZM16.3701 24.3164L15.3752 24.2155L15.2693 25.2591L16.3168 25.315L16.3701 24.3164ZM17.8018 10.5186L18.796 10.6261L18.8842 9.81032L18.1013 9.56449L17.8018 10.5186ZM15.2383 9.70605L14.9355 10.6591L14.9355 10.6591L15.2383 9.70605ZM35.3398 33.123L34.3472 33.0019L34.3472 33.0021L35.3398 33.123ZM34.2012 42.4648L33.2085 42.3438L33.0514 43.6332L34.3381 43.4554L34.2012 42.4648ZM34.959 42.4248L34.995 43.4242L34.995 43.4242L34.959 42.4248ZM37.2529 42.1797L37.7689 43.0363L37.7745 43.0329L37.2529 42.1797ZM37.4072 40.8564L36.4075 40.8324L36.4075 40.8324L37.4072 40.8564ZM37.4414 40.0762L38.3309 39.6192L36.7972 36.6339L36.4469 39.9718L37.4414 40.0762ZM40.3594 42.1348L40.0929 43.0986L40.1223 43.1067L40.1522 43.1131L40.3594 42.1348ZM42.5137 42.375L42.4829 43.3745L42.4829 43.3745L42.5137 42.375ZM46.1641 41.1748L46.7374 41.9942L46.7374 41.9941L46.1641 41.1748ZM47.9082 39.5381L48.723 40.1178L48.723 40.1178L47.9082 39.5381ZM48.4922 38.0215L49.4723 38.22L49.4723 38.22L48.4922 38.0215ZM48.7188 35.3867L49.7179 35.3449L49.7179 35.3449L48.7188 35.3867ZM47.9824 32.8926L47.1445 33.4384L47.1501 33.447L47.1558 33.4554L47.9824 32.8926ZM45.5791 30.7344L45.105 31.6149L45.1231 31.6246L45.1415 31.6336L45.5791 30.7344ZM42.334 30.1084L42.3964 31.1065L42.4069 31.1057L42.334 30.1084ZM42.3184 30.1094L42.256 29.1113L42.2464 29.1119L42.2368 29.1127L42.3184 30.1094ZM39.6865 30.6768L39.23 29.787L39.23 29.7871L39.6865 30.6768ZM38.3135 31.7354L37.3136 31.7498L37.368 35.5159L39.1889 32.2188L38.3135 31.7354ZM39.4717 24.4316L40.4428 24.6703L40.6622 23.7775L39.7909 23.484L39.4717 24.4316ZM36.4795 23.7822L36.4863 22.7822L35.5948 22.7762L35.4869 23.6611L36.4795 23.7822ZM42.4287 32.1943L42.5049 33.1914L42.5135 33.1908L42.5221 33.19L42.4287 32.1943ZM44.375 32.5205L44.8166 31.6233L44.8112 31.6206L44.375 32.5205ZM45.7939 33.8027L44.9442 34.3299L44.9531 34.3443L44.9626 34.3584L45.7939 33.8027ZM46.4727 35.7998L47.4681 35.7049L47.4681 35.7048L46.4727 35.7998ZM46.1836 37.8867L45.2659 37.4895L45.2608 37.5013L45.256 37.5132L46.1836 37.8867ZM45.0264 39.3477L45.6096 40.16L45.6149 40.1561L45.0264 39.3477ZM43.1729 39.9932L43.249 40.9903L43.2576 40.9896L43.2663 40.9888L43.1729 39.9932ZM40.3896 39.6797L39.9388 40.5723L39.9461 40.576L39.9535 40.5796L40.3896 39.6797ZM38.9736 38.4355L38.133 38.9771L38.1424 38.9918L38.1524 39.0061L38.9736 38.4355ZM38.3193 36.4238L37.3239 36.5188L37.3239 36.5189L38.3193 36.4238ZM38.584 34.3516L37.6627 33.9625L37.6596 33.9701L38.584 34.3516ZM39.7383 32.8535L39.321 31.9448L39.2257 31.9885L39.1416 32.051L39.7383 32.8535ZM61.1348 3.85547L61.3937 4.82135C76.4611 0.781503 89.957 1.72074 99.7812 3.71823L99.9805 2.73828L100.18 1.75833C90.1302 -0.284973 76.3109 -1.24887 60.8758 2.88958L61.1348 3.85547ZM99.9805 2.73828L99.7812 3.71823C104.851 4.74913 108.942 6.06212 111.761 7.11548L112.111 6.17871L112.461 5.24194C109.559 4.15784 105.368 2.81319 100.18 1.75833L99.9805 2.73828ZM112.111 6.17871L111.761 7.11548C113.171 7.64211 114.263 8.10364 115.001 8.43272L115.408 7.51953L115.816 6.60634C115.043 6.26148 113.912 5.78403 112.461 5.24195L112.111 6.17871ZM115.408 7.51953L115.001 8.43272C115.367 8.59619 115.646 8.72843 115.836 8.81948L116.269 7.91797L116.701 7.01645C116.501 6.92017 116.204 6.7796 115.816 6.60635L115.408 7.51953ZM116.269 7.91797L115.836 8.81948C115.94 8.86927 116.004 8.90005 116.047 8.92113L116.491 8.02539L116.936 7.12965C116.878 7.10082 116.793 7.06024 116.701 7.01646L116.269 7.91797ZM116.491 8.02539L116.049 8.92208L116.126 8.96016L116.568 8.06348L117.011 7.16679L116.934 7.1287L116.491 8.02539ZM116.568 8.06348L116.041 8.91292L116.105 8.95296L116.633 8.10352L117.16 7.25407L117.096 7.21404L116.568 8.06348ZM116.633 8.10352L116.049 8.91524C115.914 8.81811 115.827 8.64982 115.846 8.46002L116.841 8.55762L117.836 8.65521C117.89 8.10924 117.639 7.59533 117.217 7.2918L116.633 8.10352ZM116.841 8.55762L115.846 8.46001L110.297 65.0342L111.292 65.1318L112.287 65.2294L117.836 8.65523L116.841 8.55762ZM111.292 65.1318L110.297 65.0341C110.296 65.0372 110.296 65.0398 110.296 65.0408C110.296 65.0424 110.296 65.0418 110.296 65.0413C110.296 65.0402 110.297 65.0332 110.298 65.0239L111.291 65.1416L112.284 65.2593C112.286 65.2467 112.287 65.2365 112.287 65.2321C112.287 65.2301 112.287 65.2278 112.287 65.2278C112.287 65.2272 112.287 65.2281 112.287 65.2296L111.292 65.1318ZM111.291 65.1416L110.297 65.0337L106.934 96.0092L107.928 96.1172L108.922 96.2251L112.285 65.2495L111.291 65.1416ZM107.928 96.1172L107.351 95.3005L105.189 96.8279L105.767 97.6445L106.344 98.4612L108.505 96.9338L107.928 96.1172ZM105.767 97.6445L106.761 97.7529L110.298 65.3017L109.304 65.1934L108.31 65.085L104.772 97.5362L105.767 97.6445ZM109.304 65.1934L109.559 64.2264L109.451 64.1981L109.196 65.165L108.941 66.132L109.049 66.1603L109.304 65.1934ZM109.196 65.165L109.45 64.1978C108.496 63.9472 107.109 63.5999 105.376 63.2108L105.157 64.1865L104.938 65.1622C106.645 65.5456 108.009 65.8872 108.942 66.1323L109.196 65.165ZM105.157 64.1865L105.376 63.2108C101.912 62.4326 97.0606 61.4871 91.5122 60.8187L91.3926 61.8115L91.273 62.8043C96.7394 63.4628 101.523 64.395 104.938 65.1622L105.157 64.1865ZM91.3926 61.8115L91.5122 60.8187C80.6043 59.5048 66.9338 59.2525 55.8092 63.5014L56.166 64.4355L56.5228 65.3697C67.1839 61.2979 80.4581 61.5017 91.273 62.8043L91.3926 61.8115ZM56.166 64.4355L55.8047 63.5031L55.2881 63.7033L55.6494 64.6357L56.0108 65.5682L56.5274 65.368L56.166 64.4355ZM55.6494 64.6357L55.2798 63.7066C45.9869 67.4036 32.3415 67.8016 20.9561 67.256L20.9082 68.2549L20.8603 69.2537C32.2608 69.8 46.2908 69.4352 56.0191 65.5649L55.6494 64.6357ZM20.9082 68.2549L20.9561 67.256C15.2762 66.9838 10.1809 66.4786 6.50588 66.0412L6.3877 67.0342L6.26951 68.0272C9.97824 68.4686 15.122 68.9788 20.8603 69.2537L20.9082 68.2549ZM6.3877 67.0342L6.50588 66.0412C4.66854 65.8225 3.18553 65.6209 2.16372 65.474L2.02148 66.4639L1.87925 67.4537C2.91536 67.6026 4.41448 67.8064 6.26951 68.0272L6.3877 67.0342ZM2.02148 66.4639L2.16373 65.474C1.65354 65.4007 1.25799 65.3411 0.99033 65.2998L0.837891 66.2881L0.685451 67.2764C0.95957 67.3187 1.36193 67.3794 1.87924 67.4537L2.02148 66.4639ZM0.837891 66.2881L0.988533 65.2995L0.885994 65.2839L0.735352 66.2725L0.58471 67.261L0.687249 67.2767L0.837891 66.2881ZM0.735352 66.2725L0.887359 65.2841C0.80109 65.2708 0.733957 65.2604 0.685436 65.2527L0.52832 66.2402L0.371205 67.2278C0.42493 67.2364 0.496141 67.2474 0.583345 67.2608L0.735352 66.2725ZM0.52832 66.2402L0.686786 65.2529L0.607685 65.2402L0.449219 66.2275L0.290753 67.2149L0.369854 67.2276L0.52832 66.2402ZM0.449219 66.2275L0.645335 65.247L0.620921 65.2421L0.424805 66.2227L0.228689 67.2032L0.253103 67.2081L0.449219 66.2275ZM0.424805 66.2227L0.586701 65.2358C0.833442 65.2763 1.02793 65.5051 0.996776 65.7846L0.00292969 65.6738L-0.990917 65.5631C-1.08088 66.3703 -0.511918 67.0823 0.262909 67.2095L0.424805 66.2227ZM0.00292969 65.6738L0.996725 65.7851L8.04262 2.83095L7.04883 2.71973L6.05503 2.6085L-0.990865 65.5626L0.00292969 65.6738ZM7.04883 2.71973L8.03345 2.89442L8.04419 2.83387L7.05957 2.65918L6.07495 2.48449L6.0642 2.54504L7.04883 2.71973ZM7.05957 2.65918L8.03162 2.89396C7.9965 3.03937 7.90125 3.15624 7.77812 3.2205L7.31543 2.33398L6.85274 1.44747C6.47108 1.64666 6.18977 2.00104 6.08752 2.4244L7.05957 2.65918ZM7.31543 2.33398L7.77706 3.22106C7.63365 3.29569 7.46177 3.29557 7.3174 3.21876L7.78711 2.33594L8.25682 1.45311C7.81794 1.21961 7.29314 1.21828 6.8538 1.44691L7.31543 2.33398ZM7.78711 2.33594L7.3399 3.23036L7.35747 3.23915L7.80469 2.34473L8.2519 1.4503L8.23432 1.44151L7.78711 2.33594ZM7.80469 2.34473L7.34788 3.23429L7.38402 3.25285L7.84082 2.36328L8.29762 1.47371L8.26149 1.45516L7.80469 2.34473ZM7.84082 2.36328L7.38475 3.25322C7.42508 3.27389 7.48829 3.30613 7.57173 3.34724L8.01367 2.4502L8.45562 1.55315C8.38521 1.51847 8.33224 1.49145 8.29689 1.47334L7.84082 2.36328ZM8.01367 2.4502L7.57176 3.34725C7.73747 3.42889 7.98131 3.54498 8.29912 3.68861L8.71094 2.77734L9.12276 1.86608C8.82294 1.73058 8.59932 1.62394 8.45558 1.55314L8.01367 2.4502ZM8.71094 2.77734L8.29913 3.68862C8.93816 3.9774 9.88293 4.37773 11.1129 4.82856L11.457 3.88965L11.8012 2.95074C10.6196 2.51762 9.71995 2.13595 9.12274 1.86607L8.71094 2.77734ZM11.457 3.88965L11.1129 4.82857C13.5735 5.73045 17.1788 6.83566 21.7718 7.6544L21.9473 6.66992L22.1228 5.68544C17.6576 4.88948 14.1653 3.81724 11.8012 2.95073L11.457 3.88965ZM21.9473 6.66992L21.7718 7.6544C30.9596 9.2922 44.0989 9.78531 59.9309 5.22857L59.6543 4.26758L59.3777 3.30659C43.8759 7.7683 31.0492 7.27664 22.1228 5.68544L21.9473 6.66992ZM59.6543 4.26758L59.9225 5.23095L61.4029 4.81884L61.1348 3.85547L60.8666 2.8921L59.3861 3.30421L59.6543 4.26758ZM11.7031 8.58691L10.7089 8.47933C10.1728 13.4342 9.39879 19.075 8.6216 24.7341L9.6123 24.8701L10.603 25.0062C11.3792 19.3544 12.1575 13.6834 12.6973 8.69449L11.7031 8.58691ZM9.6123 24.8701L8.6216 24.7341C7.84547 30.3855 7.06615 36.0559 6.52631 41.0448L7.52051 41.1523L8.5147 41.2599C9.05084 36.3052 9.82581 30.6653 10.603 25.0062L9.6123 24.8701ZM7.52051 41.1523L7.60783 42.1485C7.60348 42.1489 7.62112 42.1473 7.66995 42.1487C7.71589 42.15 7.77641 42.1535 7.85309 42.1599C8.0071 42.1727 8.20257 42.1953 8.4366 42.2267C8.90519 42.2895 9.4853 42.3815 10.1236 42.4828L10.2803 41.4951L10.437 40.5075C9.80668 40.4075 9.19997 40.3112 8.70236 40.2444C8.24822 40.1836 7.75824 40.1277 7.43318 40.1562L7.52051 41.1523ZM10.2803 41.4951L10.1236 42.4828C11.5822 42.7142 13.3956 43.0049 14.5316 43.0156L14.541 42.0156L14.5504 41.0157C13.6003 41.0067 11.9683 40.7504 10.437 40.5075L10.2803 41.4951ZM14.541 42.0156L15.5352 42.1232C15.9877 37.9417 16.444 33.4729 16.9021 28.9614L15.9072 28.8604L14.9123 28.7593C14.4542 33.2711 13.9985 37.7339 13.5468 41.908L14.541 42.0156ZM15.9072 28.8604L15.8686 29.8596C19.7316 30.0089 23.3176 30.1509 27.4062 30.8856L27.583 29.9014L27.7599 28.9171C23.5164 28.1546 19.8 28.01 15.9458 27.8611L15.9072 28.8604ZM27.583 29.9014L26.5899 29.7846C26.0961 33.9829 25.6078 38.1689 25.165 42.2616L26.1592 42.3691L27.1534 42.4767C27.5951 38.3942 28.0824 34.2164 28.5762 30.0182L27.583 29.9014ZM26.1592 42.3691L25.9873 43.3543C27.0505 43.5397 28.2692 43.5162 29.303 43.4578C30.4193 43.3947 31.2181 43.3027 31.7285 43.3027L31.7285 42.3027L31.7285 41.3027C31.1589 41.3027 30.1167 41.4086 29.1901 41.461C28.181 41.518 27.1551 41.5278 26.331 41.384L26.1592 42.3691ZM31.7285 42.3027L32.7227 42.4103C33.2599 37.446 34.0502 32.3712 34.7097 27.2178L33.7178 27.0908L32.7259 26.9639C32.077 32.034 31.2731 37.2156 30.7343 42.1952L31.7285 42.3027ZM33.7178 27.0908L34.7097 27.2178C35.3587 22.1462 36.0188 17.9899 36.5577 13.0099L35.5635 12.9023L34.5693 12.7948C34.0322 17.7587 33.3852 21.8118 32.7259 26.9639L33.7178 27.0908ZM35.5635 12.9023L35.5635 11.9023C32.2759 11.9023 31.7329 11.8188 29.8303 11.5957L29.7139 12.5889L29.5974 13.5821C31.567 13.813 32.1884 13.9023 35.5635 13.9023L35.5635 12.9023ZM29.7139 12.5889L28.7197 12.4813C28.2389 16.9241 27.6508 20.753 27.1075 25.3664L28.1006 25.4834L29.0937 25.6004C29.6211 21.1226 30.2315 17.1004 30.7081 12.6964L29.7139 12.5889ZM28.1006 25.4834L28.2225 24.4909C24.304 24.0095 20.2613 23.5227 16.4234 23.3178L16.3701 24.3164L16.3168 25.315C20.0752 25.5156 24.0511 25.9935 27.9787 26.4759L28.1006 25.4834ZM16.3701 24.3164L17.365 24.4174C17.845 19.6872 18.3228 14.9985 18.796 10.6261L17.8018 10.5186L16.8076 10.411C16.3336 14.7909 15.8551 19.4859 15.3752 24.2155L16.3701 24.3164ZM17.8018 10.5186L18.1013 9.56449C17.5351 9.38668 16.5804 9.08314 15.541 8.75298L15.2383 9.70605L14.9355 10.6591C15.9726 10.9885 16.9318 11.2935 17.5022 11.4726L17.8018 10.5186ZM15.2383 9.70605L15.541 8.75298C14.308 8.36132 12.9566 7.93238 12.0027 7.63284L11.7031 8.58691L11.4035 9.54098C12.3537 9.83934 13.7018 10.2672 14.9355 10.6591L15.2383 9.70605ZM35.3398 33.123L34.3472 33.0021L33.2085 42.3438L34.2012 42.4648L35.1938 42.5858L36.3325 33.244L35.3398 33.123ZM34.2012 42.4648L34.3381 43.4554C34.3365 43.4556 34.352 43.4537 34.3939 43.4506C34.4324 43.4479 34.4819 43.445 34.5431 43.442C34.6661 43.4361 34.8182 43.4305 34.995 43.4242L34.959 42.4248L34.923 41.4255C34.6094 41.4368 34.2517 41.4484 34.0643 41.4743L34.2012 42.4648ZM34.959 42.4248L34.995 43.4242C35.4012 43.4095 35.9272 43.3908 36.3894 43.3525C36.6199 43.3335 36.8545 43.308 37.0617 43.2717C37.2246 43.2432 37.5211 43.1855 37.7689 43.0363L37.2529 42.1797L36.737 41.3231C36.8413 41.2602 36.8822 41.2727 36.7167 41.3017C36.5954 41.323 36.4288 41.3424 36.2245 41.3593C35.8173 41.393 35.3397 41.4104 34.923 41.4255L34.959 42.4248ZM37.2529 42.1797L37.7745 43.0329C38.0377 42.872 38.1564 42.6427 38.1994 42.5514C38.2528 42.4379 38.2828 42.33 38.3005 42.2551C38.3366 42.1026 38.3556 41.9382 38.3676 41.7993C38.3921 41.5151 38.4 41.169 38.4069 40.8804L37.4072 40.8564L36.4075 40.8324C36.4001 41.1406 36.393 41.4182 36.3749 41.6275C36.3707 41.6771 36.3662 41.7169 36.362 41.7479C36.3598 41.7631 36.358 41.7748 36.3565 41.7832C36.3549 41.7918 36.3541 41.7953 36.3543 41.7946C36.3543 41.7942 36.3562 41.7861 36.3607 41.7723C36.365 41.7591 36.374 41.7333 36.3898 41.6997C36.405 41.6675 36.4332 41.6135 36.4804 41.5517C36.527 41.4907 36.6072 41.4024 36.7313 41.3265L37.2529 42.1797ZM37.4072 40.8564L38.4069 40.8804C38.4146 40.561 38.4209 40.3235 38.4359 40.1806L37.4414 40.0762L36.4469 39.9718C36.4214 40.2149 36.4143 40.551 36.4075 40.8324L37.4072 40.8564ZM37.4414 40.0762L36.5519 40.5331C37.0677 41.5371 38.0155 42.1716 38.7122 42.5364C39.4342 42.9144 40.0517 43.0872 40.0929 43.0986L40.3594 42.1348L40.6259 41.1709C40.6536 41.1786 40.1864 41.0506 39.6399 40.7645C39.068 40.4652 38.5636 40.0722 38.3309 39.6192L37.4414 40.0762ZM40.3594 42.1348L40.1522 43.1131C40.9236 43.2764 41.7341 43.3515 42.4829 43.3745L42.5137 42.375L42.5444 41.3755C41.8769 41.3549 41.1902 41.2885 40.5665 41.1565L40.3594 42.1348ZM42.5137 42.375L42.4829 43.3745C44.0619 43.4231 45.5374 42.8337 46.7374 41.9942L46.1641 41.1748L45.5908 40.3555C44.6439 41.018 43.5843 41.4074 42.5444 41.3755L42.5137 42.375ZM46.1641 41.1748L46.7374 41.9941C47.418 41.5179 48.13 40.9513 48.723 40.1178L47.9082 39.5381L47.0934 38.9584C46.6951 39.5182 46.199 39.9298 45.5907 40.3555L46.1641 41.1748ZM47.9082 39.5381L48.723 40.1178C48.9269 39.8312 49.0858 39.5702 49.2095 39.2399C49.3232 38.9363 49.3941 38.6058 49.4723 38.22L48.4922 38.0215L47.5121 37.8229C47.4303 38.2265 47.3863 38.4055 47.3365 38.5384C47.2968 38.6446 47.2436 38.7472 47.0934 38.9584L47.9082 39.5381ZM48.4922 38.0215L49.4723 38.22C49.661 37.2887 49.7587 36.3215 49.7179 35.3449L48.7188 35.3867L47.7196 35.4285C47.7527 36.2179 47.6744 37.022 47.5121 37.8229L48.4922 38.0215ZM48.7188 35.3867L49.7179 35.3449C49.6939 34.7709 49.6516 34.2633 49.5128 33.7687C49.3692 33.2566 49.1386 32.8138 48.809 32.3298L47.9824 32.8926L47.1558 33.4554C47.4049 33.8212 47.5191 34.0661 47.5872 34.3089C47.6602 34.5693 47.6968 34.8838 47.7196 35.4285L48.7188 35.3867ZM47.9824 32.8926L48.8203 32.3467C48.1123 31.26 47.176 30.3994 46.0167 29.8352L45.5791 30.7344L45.1415 31.6336C45.9492 32.0266 46.6182 32.6305 47.1445 33.4384L47.9824 32.8926ZM45.5791 30.7344L46.0532 29.8539C44.8974 29.2316 43.6168 29.0119 42.2611 29.1111L42.334 30.1084L42.4069 31.1057C43.449 31.0295 44.338 31.2019 45.105 31.6149L45.5791 30.7344ZM42.334 30.1084L42.2716 29.1103L42.256 29.1113L42.3184 30.1094L42.3807 31.1074L42.3964 31.1065L42.334 30.1084ZM42.3184 30.1094L42.2368 29.1127C41.2405 29.1942 40.2491 29.2642 39.23 29.787L39.6865 30.6768L40.143 31.5665C40.7538 31.2531 41.3464 31.1922 42.3999 31.106L42.3184 30.1094ZM39.6865 30.6768L39.23 29.7871C37.9794 30.4288 37.5512 31.0471 37.4381 31.2519L38.3135 31.7354L39.1889 32.2188C39.0882 32.4011 39.2044 32.0481 40.1431 31.5665L39.6865 30.6768ZM38.3135 31.7354L39.3134 31.7209C39.2973 30.6125 39.5657 28.8822 39.8601 27.3595C40.0045 26.6128 40.1503 25.94 40.2601 25.4532C40.315 25.21 40.3608 25.0138 40.3928 24.8785C40.4088 24.8109 40.4214 24.7586 40.4299 24.7233C40.4342 24.7057 40.4374 24.6923 40.4396 24.6834C40.4407 24.6789 40.4415 24.6756 40.442 24.6734C40.4423 24.6724 40.4425 24.6715 40.4426 24.671C40.4427 24.6708 40.4427 24.6706 40.4427 24.6705C40.4428 24.6704 40.4428 24.6704 40.4428 24.6704C40.4428 24.6704 40.4428 24.6704 40.4428 24.6703L39.4717 24.4316L38.5006 24.1929C38.4974 24.2059 38.1947 25.4379 37.8965 26.9798C37.6036 28.4945 37.2942 30.4107 37.3136 31.7498L38.3135 31.7354ZM39.4717 24.4316L39.7909 23.484C38.3503 22.9987 37.0931 22.7864 36.4863 22.7822L36.4795 23.7822L36.4727 24.7822C36.7893 24.7844 37.8235 24.9317 39.1525 25.3793L39.4717 24.4316ZM36.4795 23.7822L35.4869 23.6611L34.3472 33.0019L35.3398 33.123L36.3325 33.2442L37.4721 23.9033L36.4795 23.7822ZM42.4287 32.1943L42.5221 33.19C43.0698 33.1386 43.5386 33.2264 43.9388 33.4204L44.375 32.5205L44.8112 31.6206C44.0531 31.2532 43.2135 31.1163 42.3353 31.1987L42.4287 32.1943ZM44.375 32.5205L43.9334 33.4177C44.3615 33.6284 44.6957 33.9293 44.9442 34.3299L45.7939 33.8027L46.6437 33.2756C46.194 32.5506 45.5743 31.9962 44.8166 31.6233L44.375 32.5205ZM45.7939 33.8027L44.9626 34.3584C45.2357 34.7671 45.4172 35.2667 45.4772 35.8948L46.4727 35.7998L47.4681 35.7048C47.3801 34.7831 47.1015 33.9595 46.6253 33.247L45.7939 33.8027ZM46.4727 35.7998L45.4772 35.8947C45.5375 36.5273 45.4523 37.0588 45.2659 37.4895L46.1836 37.8867L47.1013 38.2839C47.441 37.499 47.5556 36.6216 47.4681 35.7049L46.4727 35.7998ZM46.1836 37.8867L45.256 37.5132C45.0923 37.9196 44.826 38.2566 44.4378 38.5392L45.0264 39.3477L45.6149 40.1561C46.2832 39.6696 46.7973 39.0399 47.1112 38.2603L46.1836 37.8867ZM45.0264 39.3477L44.4431 38.5354C44.0986 38.7828 43.6541 38.9436 43.0794 38.9975L43.1729 39.9932L43.2663 40.9888C44.1177 40.9089 44.9202 40.6549 45.6096 40.16L45.0264 39.3477ZM43.1729 39.9932L43.0967 38.9961C42.8097 39.018 42.3173 39.0128 41.8239 38.9665C41.2895 38.9164 40.9364 38.8334 40.8258 38.7798L40.3896 39.6797L39.9535 40.5796C40.422 40.8067 41.1033 40.9077 41.6371 40.9578C42.212 41.0117 42.8216 41.0229 43.249 40.9903L43.1729 39.9932ZM40.3896 39.6797L40.8405 38.7871C40.418 38.5737 40.0783 38.2729 39.7949 37.865L38.9736 38.4355L38.1524 39.0061C38.6133 39.6695 39.2012 40.1997 39.9388 40.5723L40.3896 39.6797ZM38.9736 38.4355L39.8143 37.894C39.553 37.4884 39.3763 36.9725 39.3148 36.3288L38.3193 36.4238L37.3239 36.5189C37.4103 37.4248 37.6705 38.2593 38.133 38.9771L38.9736 38.4355ZM38.3193 36.4238L39.3148 36.3289C39.2535 35.6863 39.3308 35.1634 39.5084 34.733L38.584 34.3516L37.6596 33.9701C37.3365 34.7531 37.2374 35.6119 37.3239 36.5188L38.3193 36.4238ZM38.584 34.3516L39.5052 34.7406C39.7034 34.2713 39.9737 33.9246 40.335 33.656L39.7383 32.8535L39.1416 32.051C38.4716 32.5493 37.9884 33.1915 37.6628 33.9625L38.584 34.3516ZM39.7383 32.8535L40.1556 33.7623C40.8529 33.4421 41.265 33.3236 41.5555 33.2707C41.8859 33.2106 42.0424 33.2268 42.5049 33.1914L42.4287 32.1943L42.3525 31.1972C42.101 31.2165 41.6598 31.2189 41.1974 31.3031C40.695 31.3945 40.119 31.5783 39.321 31.9448L39.7383 32.8535Z" fill="black" mask="url(#path-1-inside-1_759_2)"/>
<path d="M116.553 0.5C117.786 0.500053 118.785 1.49958 118.785 2.73242C118.785 3.96522 117.786 4.96479 116.553 4.96484C115.32 4.96484 114.32 3.96526 114.32 2.73242C114.32 1.49954 115.32 0.5 116.553 0.5Z" stroke="black" stroke-width="2"/>
<mask id="path-4-inside-2_759_2" fill="white">
<path d="M92.3506 127.608L89.2373 127.607L87.5879 121.629L90.2227 118.885L92.3506 127.608ZM88.9287 127.556L83.125 127.226L82.7686 126.648L87.3584 121.868L88.9287 127.556ZM87.1523 121.12L82.5273 125.908L80.8193 115.196L84.7529 112.428L87.1523 121.12ZM88.0898 110.138L90.0391 118.131L87.3818 120.882L85.001 112.253L88.0684 110.095L88.0898 110.138ZM84.5713 111.771L80.7031 114.468L79.8555 109.147L81.7227 101.448L84.5713 111.771ZM87.791 109.524L84.8203 111.597L81.9082 101.039H83.6621L87.791 109.524Z"/>
</mask>
<path d="M92.3506 127.608L92.3503 128.608C92.6573 128.608 92.9473 128.468 93.1369 128.226C93.3266 127.985 93.3948 127.67 93.3221 127.371L92.3506 127.608ZM89.2373 127.607L88.2733 127.873C88.3929 128.307 88.7872 128.607 89.237 128.607L89.2373 127.607ZM87.5879 121.629L86.8666 120.936C86.6223 121.191 86.5301 121.555 86.6239 121.895L87.5879 121.629ZM90.2227 118.885L91.1942 118.648C91.1077 118.293 90.8349 118.014 90.4825 117.919C90.1301 117.824 89.7541 117.929 89.5013 118.192L90.2227 118.885ZM88.9287 127.556L88.8719 128.554C89.1936 128.572 89.5045 128.435 89.7068 128.184C89.9092 127.933 89.9784 127.6 89.8926 127.29L88.9287 127.556ZM83.125 127.226L82.2742 127.751C82.4458 128.029 82.7422 128.205 83.0682 128.224L83.125 127.226ZM82.7686 126.648L82.0472 125.956C81.7313 126.285 81.6781 126.786 81.9177 127.174L82.7686 126.648ZM87.3584 121.868L88.3223 121.602C88.2266 121.255 87.9523 120.987 87.6037 120.899C87.2552 120.811 86.8861 120.916 86.6371 121.176L87.3584 121.868ZM87.1523 121.12L87.8716 121.815C88.1174 121.56 88.2104 121.195 88.1163 120.854L87.1523 121.12ZM82.5273 125.908L81.5398 126.066C81.5995 126.44 81.8656 126.748 82.2271 126.862C82.5886 126.976 82.9833 126.876 83.2466 126.603L82.5273 125.908ZM80.8193 115.196L80.2438 114.379C79.9315 114.598 79.7717 114.977 79.8318 115.354L80.8193 115.196ZM84.7529 112.428L85.7169 112.162C85.6303 111.848 85.3966 111.596 85.0903 111.486C84.784 111.377 84.4434 111.423 84.1774 111.61L84.7529 112.428ZM88.0898 110.138L89.0614 109.901C89.0436 109.828 89.0178 109.757 88.9843 109.69L88.0898 110.138ZM90.0391 118.131L90.7583 118.826C90.9966 118.579 91.0919 118.227 91.0106 117.894L90.0391 118.131ZM87.3818 120.882L86.4179 121.148C86.5134 121.494 86.7871 121.762 87.135 121.851C87.4829 121.94 87.8517 121.835 88.1011 121.577L87.3818 120.882ZM85.001 112.253L84.4255 111.435C84.0802 111.678 83.9247 112.112 84.037 112.519L85.001 112.253ZM88.0684 110.095L88.9628 109.648C88.8326 109.387 88.5952 109.196 88.3129 109.125C88.0305 109.054 87.7311 109.109 87.4929 109.277L88.0684 110.095ZM84.5713 111.771L85.1433 112.591C85.4909 112.348 85.648 111.913 85.5353 111.504L84.5713 111.771ZM80.7031 114.468L79.7156 114.625C79.7698 114.965 79.995 115.253 80.3119 115.388C80.6288 115.523 80.9927 115.485 81.2751 115.288L80.7031 114.468ZM79.8555 109.147L78.8836 108.912C78.8524 109.04 78.8471 109.174 78.8679 109.305L79.8555 109.147ZM81.7227 101.448L82.6866 101.182C82.5654 100.743 82.1626 100.441 81.707 100.448C81.2514 100.456 80.8582 100.77 80.7508 101.213L81.7227 101.448ZM87.791 109.524L88.3631 110.345C88.7668 110.063 88.9056 109.529 88.6902 109.087L87.791 109.524ZM84.8203 111.597L83.8563 111.863C83.9426 112.176 84.1755 112.427 84.4809 112.537C84.7863 112.648 85.1262 112.603 85.3924 112.417L84.8203 111.597ZM81.9082 101.039V100.039C81.596 100.039 81.3018 100.185 81.1126 100.433C80.9235 100.682 80.8612 101.004 80.9442 101.305L81.9082 101.039ZM83.6621 101.039L84.5613 100.602C84.3939 100.257 84.0448 100.039 83.6621 100.039V101.039ZM92.3506 127.608L92.3509 126.608L89.2376 126.607L89.2373 127.607L89.237 128.607L92.3503 128.608L92.3506 127.608ZM89.2373 127.607L90.2013 127.341L88.5519 121.363L87.5879 121.629L86.6239 121.895L88.2733 127.873L89.2373 127.607ZM87.5879 121.629L88.3092 122.321L90.944 119.577L90.2227 118.885L89.5013 118.192L86.8666 120.936L87.5879 121.629ZM90.2227 118.885L89.2511 119.122L91.3791 127.845L92.3506 127.608L93.3221 127.371L91.1942 118.648L90.2227 118.885ZM88.9287 127.556L88.9855 126.557L83.1818 126.227L83.125 127.226L83.0682 128.224L88.8719 128.554L88.9287 127.556ZM83.125 127.226L83.9758 126.7L83.6194 126.123L82.7686 126.648L81.9177 127.174L82.2742 127.751L83.125 127.226ZM82.7686 126.648L83.4899 127.341L88.0797 122.561L87.3584 121.868L86.6371 121.176L82.0472 125.956L82.7686 126.648ZM87.3584 121.868L86.3945 122.134L87.9648 127.822L88.9287 127.556L89.8926 127.29L88.3223 121.602L87.3584 121.868ZM87.1523 121.12L86.4331 120.425L81.8081 125.213L82.5273 125.908L83.2466 126.603L87.8716 121.815L87.1523 121.12ZM82.5273 125.908L83.5149 125.751L81.8069 115.039L80.8193 115.196L79.8318 115.354L81.5398 126.066L82.5273 125.908ZM80.8193 115.196L81.3949 116.014L85.3285 113.245L84.7529 112.428L84.1774 111.61L80.2438 114.379L80.8193 115.196ZM84.7529 112.428L83.789 112.694L86.1884 121.386L87.1523 121.12L88.1163 120.854L85.7169 112.162L84.7529 112.428ZM88.0898 110.138L87.1183 110.375L89.0675 118.368L90.0391 118.131L91.0106 117.894L89.0614 109.901L88.0898 110.138ZM90.0391 118.131L89.3198 117.436L86.6626 120.187L87.3818 120.882L88.1011 121.577L90.7583 118.826L90.0391 118.131ZM87.3818 120.882L88.3458 120.616L85.965 111.987L85.001 112.253L84.037 112.519L86.4179 121.148L87.3818 120.882ZM85.001 112.253L85.5764 113.071L88.6438 110.913L88.0684 110.095L87.4929 109.277L84.4255 111.435L85.001 112.253ZM88.0684 110.095L87.1739 110.542L87.1954 110.585L88.0898 110.138L88.9843 109.69L88.9628 109.648L88.0684 110.095ZM84.5713 111.771L83.9993 110.95L80.1312 113.648L80.7031 114.468L81.2751 115.288L85.1433 112.591L84.5713 111.771ZM80.7031 114.468L81.6907 114.31L80.843 108.99L79.8555 109.147L78.8679 109.305L79.7156 114.625L80.7031 114.468ZM79.8555 109.147L80.8273 109.383L82.6945 101.684L81.7227 101.448L80.7508 101.213L78.8836 108.912L79.8555 109.147ZM81.7227 101.448L80.7587 101.714L83.6073 112.037L84.5713 111.771L85.5353 111.504L82.6866 101.182L81.7227 101.448ZM87.791 109.524L87.2189 108.704L84.2482 110.777L84.8203 111.597L85.3924 112.417L88.3631 110.345L87.791 109.524ZM84.8203 111.597L85.7843 111.331L82.8722 100.773L81.9082 101.039L80.9442 101.305L83.8563 111.863L84.8203 111.597ZM81.9082 101.039V102.039H83.6621V101.039V100.039H81.9082V101.039ZM83.6621 101.039L82.7629 101.477L86.8918 109.962L87.791 109.524L88.6902 109.087L84.5613 100.602L83.6621 101.039Z" fill="black" mask="url(#path-4-inside-2_759_2)"/>
<mask id="path-6-inside-3_759_2" fill="white">
<path d="M118.293 129.632H112.557L113.991 122.962L118.293 129.632ZM110.946 129.443H110.818L95.8477 124.7L93.0596 115.932L99.4336 109.292L110.946 129.443ZM109.184 115.508L113.257 121.823L111.514 129.443H111.389L99.7256 108.987L101.94 106.681L109.184 115.508ZM99.1152 108.734L92.8379 115.234L91.415 110.758L90.8086 108.167L96.502 104.161L99.1152 108.734ZM101.554 106.21L99.4082 108.431L96.8389 103.924L98.6387 102.657L101.554 106.21ZM96.2109 103.653L90.6592 107.525L87.0195 91.9629H89.5322L96.2109 103.653ZM95.3574 98.6582L95.5928 98.9453L98.2754 102.214L96.5498 103.417L90.5518 92.8975L95.3574 98.6582Z"/>
</mask>
<path d="M118.293 129.632V130.632C118.659 130.632 118.996 130.432 119.171 130.11C119.346 129.789 119.332 129.397 119.133 129.09L118.293 129.632ZM112.557 129.632L111.579 129.422C111.515 129.717 111.589 130.025 111.779 130.26C111.969 130.495 112.255 130.632 112.557 130.632V129.632ZM113.991 122.962L114.832 122.42C114.612 122.08 114.21 121.906 113.812 121.978C113.414 122.051 113.099 122.356 113.014 122.752L113.991 122.962ZM110.946 129.443V130.443C111.303 130.443 111.632 130.254 111.811 129.945C111.99 129.637 111.991 129.257 111.815 128.947L110.946 129.443ZM110.818 129.443L110.516 130.397C110.614 130.428 110.716 130.443 110.818 130.443V129.443ZM95.8477 124.7L94.8947 125.003C94.9931 125.313 95.2359 125.555 95.5456 125.653L95.8477 124.7ZM93.0596 115.932L92.3382 115.239C92.0844 115.503 91.9955 115.885 92.1066 116.235L93.0596 115.932ZM99.4336 109.292L100.302 108.796C100.145 108.522 99.8691 108.338 99.5563 108.3C99.2434 108.261 98.9305 108.372 98.7122 108.599L99.4336 109.292ZM109.184 115.508L110.024 114.966C110.003 114.934 109.981 114.903 109.957 114.873L109.184 115.508ZM113.257 121.823L114.232 122.046C114.292 121.784 114.243 121.508 114.097 121.281L113.257 121.823ZM111.514 129.443V130.443C111.98 130.443 112.384 130.121 112.488 129.666L111.514 129.443ZM111.389 129.443L110.52 129.939C110.698 130.251 111.029 130.443 111.389 130.443V129.443ZM99.7256 108.987L99.0043 108.295C98.6974 108.614 98.6374 109.098 98.8569 109.483L99.7256 108.987ZM101.94 106.681L102.713 106.046C102.532 105.825 102.265 105.693 101.979 105.681C101.694 105.67 101.417 105.782 101.219 105.988L101.94 106.681ZM99.1152 108.734L99.8346 109.429C100.143 109.109 100.204 108.624 99.9835 108.238L99.1152 108.734ZM92.8379 115.234L91.8849 115.537C91.9916 115.873 92.2669 116.128 92.6098 116.208C92.9527 116.288 93.3126 116.182 93.5572 115.929L92.8379 115.234ZM91.415 110.758L90.4414 110.986C90.4473 111.011 90.4542 111.036 90.462 111.061L91.415 110.758ZM90.8086 108.167L90.2332 107.349C89.8995 107.584 89.7419 107.998 89.8349 108.395L90.8086 108.167ZM96.502 104.161L97.3702 103.665C97.2305 103.421 96.9943 103.246 96.7195 103.185C96.4447 103.124 96.1568 103.181 95.9265 103.343L96.502 104.161ZM101.554 106.21L102.273 106.905C102.626 106.54 102.649 105.968 102.327 105.576L101.554 106.21ZM99.4082 108.431L98.5395 108.926C98.6954 109.199 98.9711 109.384 99.2835 109.423C99.5959 109.462 99.9086 109.352 100.127 109.125L99.4082 108.431ZM96.8389 103.924L96.2634 103.106C95.8418 103.403 95.7148 103.971 95.9701 104.419L96.8389 103.924ZM98.6387 102.657L99.4117 102.023C99.0796 101.618 98.4914 101.538 98.0632 101.839L98.6387 102.657ZM96.2109 103.653L96.783 104.474C97.2074 104.178 97.3359 103.607 97.0792 103.157L96.2109 103.653ZM90.6592 107.525L89.6855 107.753C89.761 108.076 89.9916 108.34 90.3013 108.459C90.6109 108.578 90.9593 108.535 91.2312 108.346L90.6592 107.525ZM87.0195 91.9629V90.9629C86.7143 90.9629 86.4257 91.1023 86.236 91.3415C86.0463 91.5807 85.9763 91.8934 86.0458 92.1906L87.0195 91.9629ZM89.5322 91.9629L90.4005 91.4668C90.2225 91.1552 89.8911 90.9629 89.5322 90.9629V91.9629ZM95.3574 98.6582L96.1308 98.0242L96.1253 98.0176L95.3574 98.6582ZM95.5928 98.9453L94.8194 99.5793L94.8198 99.5797L95.5928 98.9453ZM98.2754 102.214L98.8473 103.034C99.076 102.875 99.2278 102.627 99.266 102.351C99.3041 102.075 99.2253 101.795 99.0484 101.579L98.2754 102.214ZM96.5498 103.417L95.6811 103.912C95.8203 104.156 96.0557 104.331 96.3298 104.392C96.6038 104.454 96.8913 104.398 97.1217 104.237L96.5498 103.417ZM90.5518 92.8975L91.3196 92.2569C90.9878 91.8591 90.4071 91.7806 89.9816 92.0759C89.556 92.3713 89.4265 92.9428 89.683 93.3928L90.5518 92.8975ZM118.293 129.632V128.632H112.557V129.632V130.632H118.293V129.632ZM112.557 129.632L113.534 129.842L114.969 123.172L113.991 122.962L113.014 122.752L111.579 129.422L112.557 129.632ZM113.991 122.962L113.151 123.504L117.453 130.174L118.293 129.632L119.133 129.09L114.832 122.42L113.991 122.962ZM110.946 129.443V128.443H110.818V129.443V130.443H110.946V129.443ZM110.818 129.443L111.12 128.49L96.1497 123.747L95.8477 124.7L95.5456 125.653L110.516 130.397L110.818 129.443ZM95.8477 124.7L96.8006 124.397L94.0126 115.629L93.0596 115.932L92.1066 116.235L94.8947 125.003L95.8477 124.7ZM93.0596 115.932L93.781 116.624L100.155 109.985L99.4336 109.292L98.7122 108.599L92.3382 115.239L93.0596 115.932ZM99.4336 109.292L98.5653 109.788L110.078 129.939L110.946 129.443L111.815 128.947L100.302 108.796L99.4336 109.292ZM109.184 115.508L108.343 116.05L112.416 122.365L113.257 121.823L114.097 121.281L110.024 114.966L109.184 115.508ZM113.257 121.823L112.282 121.6L110.539 129.22L111.514 129.443L112.488 129.666L114.232 122.046L113.257 121.823ZM111.514 129.443V128.443H111.389V129.443V130.443H111.514V129.443ZM111.389 129.443L112.257 128.948L100.594 108.492L99.7256 108.987L98.8569 109.483L110.52 129.939L111.389 129.443ZM99.7256 108.987L100.447 109.68L102.662 107.373L101.94 106.681L101.219 105.988L99.0043 108.295L99.7256 108.987ZM101.94 106.681L101.167 107.315L108.411 116.142L109.184 115.508L109.957 114.873L102.713 106.046L101.94 106.681ZM99.1152 108.734L98.3959 108.04L92.1186 114.54L92.8379 115.234L93.5572 115.929L99.8346 109.429L99.1152 108.734ZM92.8379 115.234L93.7909 114.931L92.3681 110.455L91.415 110.758L90.462 111.061L91.8849 115.537L92.8379 115.234ZM91.415 110.758L92.3887 110.53L91.7823 107.939L90.8086 108.167L89.8349 108.395L90.4414 110.986L91.415 110.758ZM90.8086 108.167L91.384 108.985L97.0774 104.979L96.502 104.161L95.9265 103.343L90.2332 107.349L90.8086 108.167ZM96.502 104.161L95.6337 104.657L98.247 109.231L99.1152 108.734L99.9835 108.238L97.3702 103.665L96.502 104.161ZM101.554 106.21L100.835 105.515L98.689 107.736L99.4082 108.431L100.127 109.125L102.273 106.905L101.554 106.21ZM99.4082 108.431L100.277 107.935L97.7076 103.429L96.8389 103.924L95.9701 104.419L98.5395 108.926L99.4082 108.431ZM96.8389 103.924L97.4144 104.742L99.2142 103.475L98.6387 102.657L98.0632 101.839L96.2634 103.106L96.8389 103.924ZM98.6387 102.657L97.8656 103.292L100.781 106.844L101.554 106.21L102.327 105.576L99.4117 102.023L98.6387 102.657ZM96.2109 103.653L95.6389 102.833L90.0871 106.705L90.6592 107.525L91.2312 108.346L96.783 104.474L96.2109 103.653ZM90.6592 107.525L91.6329 107.298L87.9933 91.7352L87.0195 91.9629L86.0458 92.1906L89.6855 107.753L90.6592 107.525ZM87.0195 91.9629V92.9629H89.5322V91.9629V90.9629H87.0195V91.9629ZM89.5322 91.9629L88.6639 92.4589L95.3426 104.149L96.2109 103.653L97.0792 103.157L90.4005 91.4668L89.5322 91.9629ZM95.3574 98.6582L94.5841 99.2922L94.8194 99.5793L95.5928 98.9453L96.3661 98.3114L96.1308 98.0242L95.3574 98.6582ZM95.5928 98.9453L94.8198 99.5797L97.5024 102.848L98.2754 102.214L99.0484 101.579L96.3658 98.3109L95.5928 98.9453ZM98.2754 102.214L97.7035 101.394L95.9779 102.597L96.5498 103.417L97.1217 104.237L98.8473 103.034L98.2754 102.214ZM96.5498 103.417L97.4185 102.922L91.4205 92.4021L90.5518 92.8975L89.683 93.3928L95.6811 103.912L96.5498 103.417ZM90.5518 92.8975L89.7839 93.538L94.5895 99.2988L95.3574 98.6582L96.1253 98.0176L91.3196 92.2569L90.5518 92.8975Z" fill="black" mask="url(#path-6-inside-3_759_2)"/>
<mask id="path-8-inside-4_759_2" fill="white">
<path d="M79.1133 129.446L63.6289 129.445L79.5713 116.076L118.443 88.7217L79.1133 129.446ZM123.998 88.127L114.524 116.204C114.526 116.216 114.529 116.227 114.534 116.238L111.512 129.445L80.0859 129.446L119.754 88.127H123.998Z"/>
</mask>
<path d="M79.1133 129.446L79.1132 130.446C79.3845 130.446 79.6441 130.336 79.8326 130.141L79.1133 129.446ZM63.6289 129.445L62.9863 128.679C62.6642 128.949 62.5454 129.392 62.6892 129.787C62.8329 130.182 63.2084 130.445 63.6288 130.445L63.6289 129.445ZM79.5713 116.076L78.9958 115.258C78.9727 115.275 78.9503 115.292 78.9287 115.31L79.5713 116.076ZM118.443 88.7217L119.163 89.4164C119.521 89.0455 119.538 88.463 119.203 88.0714C118.868 87.6797 118.29 87.6071 117.868 87.9039L118.443 88.7217ZM123.998 88.127L124.946 88.4467C125.049 88.1415 124.998 87.8054 124.81 87.5437C124.623 87.2821 124.32 87.127 123.998 87.127V88.127ZM114.524 116.204L113.577 115.884C113.526 116.036 113.512 116.197 113.536 116.355L114.524 116.204ZM114.534 116.238L115.509 116.461C115.556 116.255 115.537 116.04 115.454 115.845L114.534 116.238ZM111.512 129.445L111.512 130.445C111.978 130.445 112.382 130.123 112.487 129.668L111.512 129.445ZM80.0859 129.446L79.3646 128.754C79.087 129.043 79.0089 129.47 79.166 129.838C79.3231 130.207 79.6852 130.446 80.086 130.446L80.0859 129.446ZM119.754 88.127V87.127C119.482 87.127 119.221 87.238 119.033 87.4344L119.754 88.127ZM79.1133 129.446L79.1133 128.446L63.629 128.445L63.6289 129.445L63.6288 130.445L79.1132 130.446L79.1133 129.446ZM63.6289 129.445L64.2715 130.212L80.2138 116.842L79.5713 116.076L78.9287 115.31L62.9863 128.679L63.6289 129.445ZM79.5713 116.076L80.1468 116.894L119.019 89.5395L118.443 88.7217L117.868 87.9039L78.9958 115.258L79.5713 116.076ZM118.443 88.7217L117.724 88.027L78.394 128.752L79.1133 129.446L79.8326 130.141L119.163 89.4164L118.443 88.7217ZM123.998 88.127L123.051 87.8072L113.577 115.884L114.524 116.204L115.472 116.524L124.946 88.4467L123.998 88.127ZM114.524 116.204L113.536 116.355C113.55 116.449 113.577 116.542 113.615 116.631L114.534 116.238L115.454 115.845C115.482 115.912 115.502 115.982 115.513 116.053L114.524 116.204ZM114.534 116.238L113.559 116.015L110.537 129.222L111.512 129.445L112.487 129.668L115.509 116.461L114.534 116.238ZM111.512 129.445L111.512 128.445L80.0859 128.446L80.0859 129.446L80.086 130.446L111.512 130.445L111.512 129.445ZM80.0859 129.446L80.8073 130.139L120.475 88.8195L119.754 88.127L119.033 87.4344L79.3646 128.754L80.0859 129.446ZM119.754 88.127V89.127H123.998V88.127V87.127H119.754V88.127Z" fill="black" mask="url(#path-8-inside-4_759_2)"/>
</svg>
